# xmcd
#
# Track frame offsets: 
#        150
#        14154
#        36038
#        51217
#        68391
#        86748
#        103519
#        120080
#        138759
#        157791
#        180597
#        202448
#        219400
#        242211
#        254866
#        277703
#        303053
#        324007
#        338448
#
# Disc length: 4768 seconds
#
# Revision: 0
# Processed by: cddbd v1.5.2PL0 Copyright (c) Steve Scherf et al.
# Submitted via: ExactAudioCopy v1.3
#
DISCID=f8129e13
DTITLE=Various Artist - Akella Presents - vol. 179 - Americana  CD1
DYEAR=2019
DGENRE=Blues
TTITLE0=Michael van Merwyk - Happy Man
TTITLE1=Call Me Mildy - Perfect Day
TTITLE2=Dashboard Rattle - Drop The Needle
TTITLE3=Queen Bee Blues Band - Ride In My Car
TTITLE4=Zachary Richard - It Might Be Love
TTITLE5=Willie May - Get It Ready Edit
TTITLE6=Big Al And The Heavyweights - Bayou Life
TTITLE7=Jerry Forney - Poor Boy Blues
TTITLE8=Gurf Morlix - Right Now
TTITLE9=Blues Company - Sticks and Stones
TTITLE10=Brandon Santini - Broken Bones
TTITLE11=Adi Barar Band - Mama Don't
TTITLE12=The Beauchesnes - The Professor And The Whore
TTITLE13=Dany Franchi - Big Kind Hearted Man
TTITLE14=Kent Earl Housman - Codline
TTITLE15=Wily Bo Walker - Tennessee Blues
TTITLE16=John Illsley - Double Time
TTITLE17=The Ragtime Rumours - Aint Nobody
TTITLE18=Bad Temper Joe - Hell's Gonna Fly
EXTD=
EXTT0=
EXTT1=
EXTT2=
EXTT3=
EXTT4=
EXTT5=
EXTT6=
EXTT7=
EXTT8=
EXTT9=
EXTT10=
EXTT11=
EXTT12=
EXTT13=
EXTT14=
EXTT15=
EXTT16=
EXTT17=
EXTT18=
PLAYORDER=
